<svg xmlns="http://www.w3.org/2000/svg" xmlns:xlink="http://www.w3.org/1999/xlink" width="1920" zoomAndPan="magnify" viewBox="0 0 1440 809.999993" height="1080" preserveAspectRatio="xMidYMid meet" version="1.2"><defs><clipPath id="4a62e0d5eb"><path d="M 572 208 L 826.742188 208 L 826.742188 531.207031 L 572 531.207031 Z M 572 208 "/></clipPath></defs><g id="06c4809f48"><g clip-rule="nonzero" clip-path="url(#4a62e0d5eb)"><path style=" stroke:none;fill-rule:nonzero;fill:#ffffff;fill-opacity:1;" d="M 822.421875 357.007812 C 822.421875 357.007812 815.148438 354.339844 811.558594 353.050781 C 795.445312 346.972656 778.410156 336.570312 764.96875 325.796875 C 753.089844 316.3125 740.109375 302.78125 734.03125 288.507812 C 726.574219 271.105469 715.527344 235.015625 715.527344 216.785156 C 715.527344 214.023438 713.683594 211.628906 711.105469 210.890625 C 710.648438 210.15625 709.910156 209.417969 709.082031 208.957031 C 706.136719 207.207031 702.359375 208.222656 700.609375 211.167969 C 698.308594 215.128906 697.480469 220.097656 697.480469 225.4375 C 697.480469 231.699219 698.863281 238.605469 699.136719 243.667969 C 701.070312 270.921875 679.800781 295.875 661.386719 313.460938 C 642.699219 331.320312 616.089844 348.078125 591.414062 355.71875 C 586.625 357.195312 581.65625 358.941406 577.417969 361.519531 C 576.867188 361.796875 575.761719 362.351562 575.761719 362.351562 C 573.367188 363.453125 571.894531 365.941406 572.171875 368.519531 C 572.445312 371.1875 574.289062 373.304688 576.867188 373.949219 C 576.867188 373.949219 586.996094 376.4375 592.058594 377.449219 C 612.5 381.5 630.914062 389.972656 644.261719 406.359375 C 663.964844 430.667969 671.792969 456.90625 680.539062 486.371094 C 683.578125 496.773438 684.683594 507.730469 686.0625 518.410156 L 686.0625 524.949219 C 686.0625 528.261719 688.734375 531.023438 692.046875 531.117188 C 695.363281 531.207031 698.21875 528.632812 698.402344 525.316406 C 698.402344 525.316406 698.675781 520.621094 698.402344 517.859375 C 698.402344 512.058594 698.585938 506.351562 698.953125 500.640625 C 700.886719 469.980469 714.511719 442.082031 734.308594 418.605469 C 753.277344 396.046875 780.988281 374.503906 810.820312 370.726562 C 814.410156 370.269531 821.5 368.980469 821.5 368.980469 C 824.261719 368.425781 826.289062 366.214844 826.566406 363.363281 C 826.65625 360.601562 825 357.929688 822.421875 357.007812 Z M 724.734375 410.59375 C 708.4375 429.929688 696.191406 451.933594 690.207031 475.875 C 681.734375 447.609375 672.988281 422.195312 653.746094 398.535156 C 639.566406 381.039062 620.324219 371.28125 598.871094 366.308594 C 624.097656 357.746094 650.890625 340.621094 669.949219 322.390625 C 687.351562 305.816406 706.136719 282.984375 710.648438 257.941406 C 714.421875 271.476562 718.933594 284.550781 722.617188 293.296875 C 729.519531 309.316406 743.792969 324.691406 757.234375 335.371094 C 769.019531 344.765625 783.382812 353.972656 797.746094 360.507812 C 769.296875 367.964844 743.148438 388.683594 724.734375 410.59375 Z M 724.734375 410.59375 "/></g></g></svg>